Inverse Dynamics Generalized Forces
version=1
nRows=15
nColumns=34
inDegrees=no
endheader 
time	pelvis_tilt_moment	pelvis_list_moment	pelvis_rotation_moment	pelvis_tx_force	pelvis_ty_force	pelvis_tz_force	hip_flexion_l_moment	hip_adduction_l_moment	hip_rotation_l_moment	hip_flexion_r_moment	hip_adduction_r_moment	hip_rotation_r_moment	knee_angle_l_moment	knee_angle_r_moment	ankle_angle_l_moment	ankle_angle_r_moment	subtalar_angle_l_moment	subtalar_angle_r_moment	mtp_angle_l_moment	mtp_angle_r_moment	lumbar_extension_moment	lumbar_bending_moment	lumbar_rotation_moment	arm_flex_l_moment	arm_add_l_moment	arm_rot_l_moment	arm_flex_r_moment	arm_add_r_moment	arm_rot_r_moment	elbow_flex_l_moment	elbow_flex_r_moment	pro_sup_l_moment	pro_sup_r_moment	
          4.36000000	         -0.00000000	          0.00000000	         -0.00000000	          0.00000000	          0.00000000	          0.00000000	         22.73748518	         14.77504829	          3.71530813	        -65.06655174	        -19.57068707	         -3.72317753	         -1.32529759	         24.69117746	          1.73292150	         -3.08395359	         -0.06251196	          0.74375997	         -0.12962944	          0.31709850	         49.35098210	         22.48215386	         69.41655602	        -39.78120007	         98.69803880	          0.05774602	         73.47835284	          9.55748641	         81.50928880	        -34.95435332	          1.36339710	          1.27456524	          0.61495333	
          4.37000000	         -0.00000000	          0.00000000	         -0.00000000	          0.00000000	          0.00000000	          0.00000000	          0.68557579	         28.86745576	         -0.64244232	        -54.37865879	        -13.91779095	         -2.10718078	         14.27272820	         20.67824644	          1.56158315	         -2.03028986	         -0.06912567	          0.47330723	         -0.13078317	          0.21841757	         57.21294244	         17.72089621	         44.36466539	        -54.42036246	        111.28817358	         -1.48103978	         92.39041639	        -29.85893075	         98.16022606	        -40.76154577	        -33.32742897	          1.38004825	          1.84193358	
          4.38000000	         -0.00000000	          0.00000000	         -0.00000000	          0.00000000	          0.00000000	          0.00000000	        -21.65068861	         40.14069197	         -4.52861011	        -45.34430703	         -6.93573125	         -1.65209528	         25.34649733	         17.30792856	          1.38696892	          0.67395028	         -0.11803577	         -0.82680207	         -0.12329337	          0.02956794	         88.09638723	         25.31753198	         21.23232352	        -30.63198454	         64.65483583	         -4.11624525	        106.42431231	        -59.31627720	        110.52595761	        -21.39434061	        -35.26684203	         -0.00523849	          1.91141599	
          4.39000000	          0.00000000	         -0.00000000	         -0.00000000	          0.00000000	          0.00000000	          0.00000000	        -45.69785422	         54.84210734	         -8.52664907	        -35.40542432	         -2.72072147	         -0.72548800	         38.96878556	         11.91649412	          0.83504747	          8.03388886	          0.67649756	         -5.06795815	         -0.15277368	         -0.52735723	        122.16663697	         48.25793275	         20.91771173	         14.32956431	         11.26016222	         -2.35490074	        116.65406783	        -81.29164860	        119.81231671	          1.07049103	        -22.06302341	         -0.70324850	          0.74547334	
          4.40000000	          0.00000000	          0.00000000	         -0.00000000	          0.00000000	          0.00000000	          0.00000000	        -95.36312848	         96.13570232	        -14.56322517	        -28.77123422	          3.93251520	         -2.32787115	         67.46424587	         11.52438340	         -2.09266201	         -3.86009262	          2.39918472	          1.97222820	         -0.06647759	          0.59899074	        166.33533369	         92.28397492	          6.30083875	         48.01818723	        -28.62877442	          1.71184403	         77.37166222	        -97.69021200	         51.90266991	         18.03638646	         20.89828064	         -0.42526768	         -3.26400945	
          4.41000000	         -0.00000000	         -0.00000000	          0.00000000	          0.00000000	          0.00000000	          0.00000000	        -89.77055809	        135.58958386	        -16.49946362	        -14.50301956	        -26.01703429	         10.43405264	         74.41108332	         32.30760333	         -4.35248893	        -81.98844635	          3.84466073	         31.02982947	          0.04028881	         21.81216982	         97.07727424	        143.90309351	        -11.51437579	         -1.16433832	        -58.44249089	         -0.31128342	         18.55513823	        -77.24822034	          0.75494828	         21.50806306	         34.58002364	         -0.40891280	         -1.43105953	
          4.42000000	         -0.00000000	          0.00000000	         -0.00000000	         -0.00000000	          0.00000000	         -0.00000000	        -74.53324828	        135.53567817	        -14.02011760	        -21.46185731	        -47.76976480	          0.28562911	         67.80905537	        -63.38918384	         -2.56303760	       -154.67291868	          1.98584131	         55.78174711	          0.03238116	         22.40987431	         96.97632805	        182.69578312	         41.94198282	        -37.98269295	        -80.85519566	         -3.01477272	        -27.68459781	        -20.30134580	        -39.19642661	         17.44507139	         58.48066919	         -0.40725125	          8.78042292	
          4.43000000	         -0.00000000	          0.00000000	         -0.00000000	         -0.00000000	          0.00000000	         -0.00000000	        -42.16195971	         49.01832732	         -9.86983242	        -17.65401026	        -27.08240661	         -0.22729840	         41.56399548	       -130.81135581	          7.38311948	       -204.43483480	         -3.80731656	         79.27095679	         -0.24629960	         23.86517232	        133.87217090	        211.84807253	         45.37167121	        -65.51499233	        -97.96259266	        -19.22984405	        -66.12997198	         21.51412534	        -73.61921336	          7.30844559	         80.73460728	         -3.68754110	         -7.05965404	
          4.44000000	         -0.00000000	          0.00000000	         -0.00000000	         -0.00000000	          0.00000000	         -0.00000000	        -20.92336613	        100.81981648	         -9.92089863	        -33.50812822	        -51.61666029	          3.59390915	         47.36102857	       -156.09618025	         -0.35524962	       -253.06157365	          1.58914175	         98.94135355	         -0.00631503	         23.08007919	        110.25464900	        119.65380738	        101.57766302	        -44.02117070	        -36.18094864	         -3.67030136	        -32.36657263	        -23.55233093	        -17.21230436	         -3.86170966	         22.70316187	          0.39103803	         10.44638684	
          4.45000000	         -0.00000000	          0.00000000	         -0.00000000	         -0.00000000	          0.00000000	         -0.00000000	        -25.08357057	         66.09037903	         -9.22089721	        -68.79715522	         -1.91341499	          6.01284227	         40.91291051	       -149.58424789	          0.72040383	       -263.74297522	          0.42216868	        111.04228549	         -0.04746580	         25.94991134	        143.28892917	         15.37891873	         73.62890831	        -21.80735242	         10.34726728	         -1.10062692	        -40.29278659	        -55.28128454	        -50.80974339	        -13.99520503	          8.09203261	          0.31569620	          0.70562585	
          4.46000000	         -0.00000000	          0.00000000	         -0.00000000	         -0.00000000	          0.00000000	         -0.00000000	        -11.75613537	         56.08741673	         -5.72150442	        -55.53731784	         36.76219109	          6.04197722	         31.80021667	       -153.84467517	         -0.56060773	       -244.74305539	          0.90434068	        108.33523093	          0.01599401	         23.81660227	        120.46593462	        -62.99600726	         56.90288002	         20.55603283	         45.02196829	          3.71855660	          7.25026334	        -78.65566704	        -77.38745179	        -13.52188248	         43.24558923	          0.83398249	         -3.46310070	
          4.47000000	         -0.00000000	          0.00000000	         -0.00000000	         -0.00000000	          0.00000000	         -0.00000000	          1.83022524	         37.00116375	         -6.00361754	        -54.47137675	         45.45637253	         -0.89186083	         22.28990905	       -175.32284040	          0.02987865	       -230.96008410	          0.12039846	        105.11677141	         -0.00055051	         23.55706027	        139.10783772	        -90.39250375	         87.29653681	         52.87538348	         28.90293197	          4.01549376	         42.56343356	        -21.16297462	        -96.81981612	          0.78531810	         51.11122000	          0.01340879	         -4.44560305	
          4.48000000	         -0.00000000	          0.00000000	         -0.00000000	         -0.00000000	          0.00000000	         -0.00000000	         19.55093728	         28.51638654	         -2.64033244	        -42.09301741	         37.00273406	         -1.65009782	         13.09232977	       -193.05549686	          2.14500776	       -224.82049587	         -0.82690917	        100.77655291	         -0.15038761	         24.83570691	        110.75741810	        -75.90364272	        102.11771633	         19.72385152	        -15.85576242	         -1.16285200	         53.10677503	         21.89376411	       -110.52922039	         10.53907829	         31.39303348	         -0.89147284	         -3.97198884	
          4.49000000	         -0.00000000	          0.00000000	         -0.00000000	         -0.00000000	          0.00000000	         -0.00000000	         19.61722686	         21.97599006	         -1.80673022	          0.94893885	          7.48877477	          0.88436203	         11.59210833	       -222.33402815	          5.17390798	       -225.16350912	         -2.21393796	         98.68139458	         -0.57925895	         26.80218744	         48.45488121	        -25.19412223	         95.44660426	        -22.42857812	        -49.46951814	         -9.09336146	         38.92091087	         53.79403134	       -101.29205959	         15.18264395	          7.76619171	         -1.43639414	         -3.78737376	
          4.50000000	         -0.00000000	          0.00000000	          0.00000000	         -0.00000000	          0.00000000	         -0.00000000	         18.20649146	         15.55767120	         -1.38581639	        -99.54660005	         60.26010390	        -11.85963762	        -24.81174643	       -120.22530324	          2.33316417	       -212.13525654	         -4.08795583	         90.45436285	         -2.85552585	         27.66043975	        110.95339625	        -83.23048143	        118.11538885	        -54.00944371	        -74.67168091	        -19.05740341	          4.67356638	          8.85075312	        -38.23649219	         21.55253988	          7.41108906	         -2.87887355	         -2.58847731	
